<?xml version="1.0" encoding="UTF-8"?>
<svg id="_Слой_2" data-name="Слой 2" xmlns="http://www.w3.org/2000/svg" xmlns:xlink="http://www.w3.org/1999/xlink" viewBox="0 0 105.42 42.92">
  <defs>
    <style>
      .cls-1 {
        fill: url(#linear-gradient-8);
      }

      .cls-2 {
        fill: url(#linear-gradient-7);
      }

      .cls-3 {
        fill: url(#linear-gradient-5);
      }

      .cls-4 {
        fill: url(#linear-gradient-6);
      }

      .cls-5 {
        fill: url(#linear-gradient-9);
      }

      .cls-6 {
        fill: url(#linear-gradient-4);
      }

      .cls-7 {
        fill: url(#linear-gradient-3);
      }

      .cls-8 {
        fill: url(#linear-gradient-2);
      }

      .cls-9 {
        fill: url(#linear-gradient);
      }

      .cls-10 {
        fill: #323366;
      }

      .cls-11 {
        fill: url(#linear-gradient-10);
      }

      .cls-12 {
        fill: url(#linear-gradient-11);
      }

      .cls-13 {
        fill: url(#linear-gradient-12);
      }

      .cls-14 {
        fill: url(#linear-gradient-13);
      }

      .cls-15 {
        fill: url(#linear-gradient-19);
      }

      .cls-16 {
        fill: url(#linear-gradient-14);
      }

      .cls-17 {
        fill: url(#linear-gradient-21);
      }

      .cls-18 {
        fill: url(#linear-gradient-20);
      }

      .cls-19 {
        fill: url(#linear-gradient-22);
      }

      .cls-20 {
        fill: url(#linear-gradient-23);
      }

      .cls-21 {
        fill: url(#linear-gradient-15);
      }

      .cls-22 {
        fill: url(#linear-gradient-16);
      }

      .cls-23 {
        fill: url(#linear-gradient-17);
      }

      .cls-24 {
        fill: url(#linear-gradient-18);
      }
    </style>
    <linearGradient id="linear-gradient" x1="94.75" y1="36.47" x2="-21.47" y2="39.57" gradientUnits="userSpaceOnUse">
      <stop offset="0" stop-color="#d9b043"/>
      <stop offset=".11" stop-color="#b97c18"/>
      <stop offset=".3" stop-color="#c49013"/>
      <stop offset=".42" stop-color="#e5cb6b"/>
      <stop offset=".51" stop-color="#e9dfa5"/>
      <stop offset=".57" stop-color="#e9dfa5"/>
      <stop offset=".64" stop-color="#ac6f21"/>
      <stop offset=".66" stop-color="#9e5618"/>
      <stop offset=".69" stop-color="#ae6b18"/>
      <stop offset=".76" stop-color="#a25f18"/>
      <stop offset=".79" stop-color="#cb8d11"/>
      <stop offset=".96" stop-color="#e3ae00"/>
    </linearGradient>
    <linearGradient id="linear-gradient-2" x1="94.78" y1="37.31" x2="-21.45" y2="40.41" xlink:href="#linear-gradient"/>
    <linearGradient id="linear-gradient-3" x1="94.78" y1="37.42" x2="-21.45" y2="40.52" xlink:href="#linear-gradient"/>
    <linearGradient id="linear-gradient-4" x1="94.75" y1="36.46" x2="-21.47" y2="39.56" xlink:href="#linear-gradient"/>
    <linearGradient id="linear-gradient-5" x1="94.77" y1="37.09" x2="-21.46" y2="40.19" xlink:href="#linear-gradient"/>
    <linearGradient id="linear-gradient-6" x1="94.76" y1="36.63" x2="-21.47" y2="39.73" xlink:href="#linear-gradient"/>
    <linearGradient id="linear-gradient-7" x1="94.83" y1="39.32" x2="-21.4" y2="42.43" xlink:href="#linear-gradient"/>
    <linearGradient id="linear-gradient-8" x1="94.77" y1="37.23" x2="-21.45" y2="40.33" xlink:href="#linear-gradient"/>
    <linearGradient id="linear-gradient-9" x1="94.8" y1="38.08" x2="-21.43" y2="41.18" xlink:href="#linear-gradient"/>
    <linearGradient id="linear-gradient-10" x1="94.8" y1="38.19" x2="-21.43" y2="41.29" xlink:href="#linear-gradient"/>
    <linearGradient id="linear-gradient-11" x1="94.8" y1="38.33" x2="-21.42" y2="41.44" xlink:href="#linear-gradient"/>
    <linearGradient id="linear-gradient-12" x1="94.79" y1="37.92" x2="-21.43" y2="41.02" xlink:href="#linear-gradient"/>
    <linearGradient id="linear-gradient-13" x1="94.83" y1="39.24" x2="-21.4" y2="42.34" xlink:href="#linear-gradient"/>
    <linearGradient id="linear-gradient-14" x1="94.85" y1="40.13" x2="-21.37" y2="43.23" xlink:href="#linear-gradient"/>
    <linearGradient id="linear-gradient-15" x1="94.8" y1="38.06" x2="-21.43" y2="41.16" xlink:href="#linear-gradient"/>
    <linearGradient id="linear-gradient-16" x1="94.82" y1="38.88" x2="-21.41" y2="41.98" xlink:href="#linear-gradient"/>
    <linearGradient id="linear-gradient-17" x1="94.82" y1="38.99" x2="-21.4" y2="42.09" xlink:href="#linear-gradient"/>
    <linearGradient id="linear-gradient-18" x1="94.82" y1="39.13" x2="-21.4" y2="42.23" xlink:href="#linear-gradient"/>
    <linearGradient id="linear-gradient-19" x1="94.8" y1="38.13" x2="-21.43" y2="41.23" xlink:href="#linear-gradient"/>
    <linearGradient id="linear-gradient-20" x1="94.81" y1="38.77" x2="-21.41" y2="41.87" xlink:href="#linear-gradient"/>
    <linearGradient id="linear-gradient-21" x1="94.83" y1="39.35" x2="-21.4" y2="42.45" xlink:href="#linear-gradient"/>
    <linearGradient id="linear-gradient-22" x1="94.87" y1="40.98" x2="-21.35" y2="44.08" xlink:href="#linear-gradient"/>
    <linearGradient id="linear-gradient-23" x1="101.34" y1="-9.34" x2="103.16" y2="29.33" xlink:href="#linear-gradient"/>
  </defs>
  <g id="_Слой_1-2" data-name="Слой 1">
    <g>
      <path class="cls-9" d="M8.53,36.06h.63v2.19h2.98v-2.19h.63v5.32h-.63v-2.56h-2.98v2.56h-.63v-5.32Z"/>
      <path class="cls-8" d="M17.7,39.6h-3.1c.04.39.19.7.46.94.27.24.6.35.98.35.45,0,.85-.18,1.2-.53l.36.42c-.2.22-.44.38-.71.5s-.56.18-.87.18c-.39,0-.74-.09-1.06-.27-.32-.18-.57-.43-.75-.74-.18-.31-.27-.66-.27-1.04s.09-.72.27-1.04.42-.56.73-.75c.31-.18.64-.27,1.02-.27.33,0,.64.07.91.23.27.15.49.36.65.63.16.27.23.58.23.92,0,.15-.02.31-.05.47ZM15.94,37.93c-.33,0-.61.1-.85.31-.24.21-.4.48-.47.82h2.49c0-.35-.12-.62-.34-.83-.22-.2-.5-.3-.83-.3Z"/>
      <path class="cls-7" d="M21.44,37.77c.28.27.42.67.42,1.19v2.42h-.58v-.51c-.15.19-.33.34-.56.44-.23.1-.48.15-.77.15-.4,0-.73-.1-.99-.3-.26-.2-.38-.47-.38-.81s.13-.6.39-.8c.26-.2.6-.3,1.02-.3h1.24v-.34c0-.32-.08-.57-.25-.74s-.4-.25-.7-.25c-.24,0-.45.05-.63.16s-.35.26-.52.47l-.41-.34c.18-.29.41-.51.69-.65.28-.14.58-.21.91-.21.46,0,.83.14,1.11.41ZM20.63,40.81c.18-.09.33-.22.44-.39s.17-.35.17-.55v-.1h-1.17c-.27,0-.48.05-.63.14s-.22.23-.22.41c0,.2.08.35.23.46s.35.16.58.16c.21,0,.41-.05.6-.14Z"/>
      <path class="cls-6" d="M23.25,35.33h.62v6.05h-.62v-6.05Z"/>
      <path class="cls-3" d="M27.46,40.85v.52c-.25.06-.46.09-.65.09-.41,0-.73-.1-.97-.31s-.35-.53-.35-.96v-2.18h-.66v-.56h.66v-1.07h.62v1.07h1.23v.56h-1.23v2.14c0,.28.07.47.21.58s.35.17.62.17c.15,0,.33-.02.52-.05Z"/>
      <path class="cls-4" d="M31.33,37.79c.26.28.39.66.39,1.12v2.47h-.62v-2.39c0-.32-.09-.57-.26-.77-.17-.19-.41-.29-.71-.29s-.55.1-.74.3-.29.45-.29.76v2.39h-.62v-6.05h.62v2.56c.13-.17.3-.3.5-.39s.43-.14.67-.14c.45,0,.81.14,1.06.43Z"/>
      <path class="cls-2" d="M33.55,41.47c-.14,0-.26-.05-.36-.15-.1-.1-.15-.22-.15-.36s.05-.27.15-.36c.1-.1.22-.15.36-.15s.26.05.36.15c.1.1.15.22.15.36s-.05.27-.15.36c-.1.1-.22.15-.36.15Z"/>
      <path class="cls-1" d="M41.44,38.96c.18.24.27.54.27.88,0,.3-.07.56-.2.79-.13.23-.33.41-.58.54s-.56.2-.9.2h-2.19v-5.32h1.83c.46,0,.83.13,1.1.38.27.25.41.58.41.97,0,.22-.04.42-.13.6s-.21.33-.37.45c.33.1.58.27.77.51ZM38.46,36.62v1.65h1.14c.3,0,.53-.07.69-.23.16-.15.24-.35.24-.6s-.08-.45-.24-.6c-.16-.15-.39-.22-.7-.22h-1.14ZM40.78,40.54c.19-.18.29-.42.29-.71s-.1-.53-.29-.71c-.19-.18-.46-.27-.81-.27h-1.5v1.97h1.5c.35,0,.62-.09.81-.27Z"/>
      <path class="cls-5" d="M46.3,39.6h-3.1c.04.39.19.7.46.94.27.24.6.35.98.35.45,0,.85-.18,1.2-.53l.36.42c-.2.22-.44.38-.71.5s-.56.18-.87.18c-.39,0-.74-.09-1.06-.27-.32-.18-.57-.43-.75-.74-.18-.31-.27-.66-.27-1.04s.09-.72.27-1.04.42-.56.73-.75c.31-.18.64-.27,1.02-.27.33,0,.64.07.91.23.27.15.49.36.65.63.16.27.23.58.23.92,0,.15-.02.31-.05.47ZM44.54,37.93c-.33,0-.61.1-.85.31-.24.21-.4.48-.47.82h2.49c0-.35-.12-.62-.34-.83-.22-.2-.5-.3-.83-.3Z"/>
      <path class="cls-11" d="M50.04,37.77c.28.27.42.67.42,1.19v2.42h-.58v-.51c-.15.19-.33.34-.56.44-.23.1-.48.15-.77.15-.4,0-.73-.1-.99-.3-.26-.2-.38-.47-.38-.81s.13-.6.39-.8c.26-.2.6-.3,1.02-.3h1.24v-.34c0-.32-.08-.57-.25-.74s-.4-.25-.7-.25c-.24,0-.45.05-.63.16s-.35.26-.52.47l-.41-.34c.18-.29.41-.51.69-.65.28-.14.58-.21.91-.21.46,0,.83.14,1.11.41ZM49.23,40.81c.18-.09.33-.22.44-.39s.17-.35.17-.55v-.1h-1.17c-.27,0-.48.05-.63.14s-.22.23-.22.41c0,.2.08.35.23.46s.35.16.58.16c.21,0,.41-.05.6-.14Z"/>
      <path class="cls-12" d="M52.6,41.26c-.25-.14-.44-.33-.58-.58-.14-.25-.21-.54-.21-.87v-2.36h.61v2.4c0,.32.1.57.29.76s.44.28.73.28.52-.1.71-.29c.19-.19.29-.44.29-.75v-2.4h.62v2.36c0,.33-.07.62-.21.87-.14.25-.34.44-.58.58-.25.14-.52.21-.82.21s-.58-.07-.83-.21Z"/>
      <path class="cls-13" d="M58.59,40.85v.52c-.25.06-.47.09-.65.09-.41,0-.73-.1-.97-.31s-.35-.53-.35-.96v-2.18h-.66v-.56h.66v-1.07h.62v1.07h1.22v.56h-1.22v2.14c0,.28.07.47.21.58.14.11.35.17.62.17.15,0,.33-.02.52-.05Z"/>
      <path class="cls-14" d="M63.05,37.45l-1.94,4.47c-.15.34-.33.6-.55.75-.22.16-.48.24-.78.24-.2,0-.4-.03-.61-.08v-.52c.2.03.36.04.48.04.2,0,.38-.05.52-.14.14-.09.26-.26.37-.49l.21-.47-1.63-3.8h.67l1.3,3.13,1.3-3.13h.66Z"/>
      <path class="cls-16" d="M63.9,41.47c-.14,0-.26-.05-.36-.15-.1-.1-.15-.22-.15-.36s.05-.27.15-.36c.1-.1.22-.15.36-.15s.26.05.36.15c.1.1.15.22.15.36s-.05.27-.15.36c-.1.1-.22.15-.36.15Z"/>
      <path class="cls-21" d="M71.6,41.38l-1.65-2.23h-1.14v2.23h-.63v-5.32h1.87c.34,0,.64.07.9.2.25.13.45.31.59.55.14.23.21.5.21.79,0,.36-.1.67-.3.93-.2.26-.47.44-.82.54l1.7,2.31h-.73ZM68.81,38.58h1.22c.34,0,.61-.09.79-.27s.28-.41.28-.71-.09-.53-.28-.71c-.19-.18-.45-.27-.79-.27h-1.22v1.96Z"/>
      <path class="cls-22" d="M76.57,39.6h-3.1c.04.39.19.7.46.94.27.24.6.35.98.35.45,0,.85-.18,1.2-.53l.36.42c-.2.22-.44.38-.71.5-.27.12-.55.18-.87.18-.39,0-.74-.09-1.06-.27-.32-.18-.57-.43-.75-.74-.18-.31-.27-.66-.27-1.04s.09-.72.27-1.04.42-.56.73-.75c.31-.18.64-.27,1.02-.27.33,0,.64.07.91.23.27.15.49.36.64.63.16.27.23.58.23.92,0,.15-.02.31-.05.47ZM74.82,37.93c-.33,0-.61.1-.85.31-.24.21-.4.48-.47.82h2.49c0-.35-.12-.62-.34-.83-.22-.2-.5-.3-.83-.3Z"/>
      <path class="cls-23" d="M78.07,41.25c-.26-.14-.48-.33-.65-.55l.39-.41c.19.19.37.34.54.45.17.1.37.16.59.16s.39-.05.54-.15.21-.23.21-.41c0-.16-.05-.28-.16-.36-.11-.08-.28-.17-.52-.27l-.38-.16c-.33-.13-.57-.28-.73-.45-.16-.16-.24-.38-.24-.64,0-.34.13-.61.38-.81s.57-.29.94-.29c.27,0,.52.05.74.17.22.11.41.26.57.46l-.38.39c-.13-.13-.28-.24-.45-.32-.16-.08-.34-.12-.52-.12-.19,0-.35.04-.47.13-.12.09-.18.21-.18.36,0,.12.05.22.14.3s.26.17.5.27l.36.15c.37.16.63.32.79.5.16.17.25.4.25.66,0,.37-.13.65-.4.85-.27.2-.59.3-.98.3-.33,0-.62-.07-.88-.21Z"/>
      <path class="cls-24" d="M82.28,41.26c-.25-.14-.44-.33-.58-.58s-.21-.54-.21-.87v-2.36h.61v2.4c0,.32.1.57.29.76.19.19.44.28.73.28s.52-.1.71-.29c.19-.19.29-.44.29-.75v-2.4h.62v2.36c0,.33-.07.62-.21.87-.14.25-.34.44-.58.58-.25.14-.52.21-.82.21s-.58-.07-.83-.21Z"/>
      <path class="cls-15" d="M86.13,35.33h.62v6.05h-.62v-6.05Z"/>
      <path class="cls-18" d="M90.34,40.85v.52c-.25.06-.47.09-.65.09-.41,0-.73-.1-.97-.31s-.35-.53-.35-.96v-2.18h-.66v-.56h.66v-1.07h.62v1.07h1.22v.56h-1.22v2.14c0,.28.07.47.21.58.14.11.35.17.62.17.15,0,.33-.02.52-.05Z"/>
      <path class="cls-17" d="M91.62,41.25c-.26-.14-.48-.33-.65-.55l.39-.41c.19.19.37.34.54.45.17.1.37.16.59.16s.39-.05.54-.15.21-.23.21-.41c0-.16-.05-.28-.16-.36-.11-.08-.28-.17-.52-.27l-.38-.16c-.33-.13-.57-.28-.73-.45-.16-.16-.24-.38-.24-.64,0-.34.13-.61.38-.81s.57-.29.94-.29c.27,0,.52.05.74.17.22.11.41.26.57.46l-.38.39c-.13-.13-.28-.24-.45-.32-.16-.08-.34-.12-.52-.12-.19,0-.35.04-.47.13-.12.09-.18.21-.18.36,0,.12.05.22.14.3s.26.17.5.27l.36.15c.37.16.63.32.79.5.16.17.25.4.25.66,0,.37-.13.65-.4.85-.27.2-.59.3-.98.3-.33,0-.62-.07-.88-.21Z"/>
      <path class="cls-19" d="M95.53,41.47c-.14,0-.26-.05-.36-.15-.1-.1-.15-.22-.15-.36s.05-.27.15-.36c.1-.1.22-.15.36-.15s.26.05.36.15c.1.1.15.22.15.36s-.05.27-.15.36c-.1.1-.22.15-.36.15Z"/>
    </g>
    <g>
      <g>
        <path class="cls-10" d="M.33,21.45c0-.26,0-.72-.02-1.35-.01-.64-.02-1.31-.02-2.02s0-1.41-.02-2.04c-.01-.63-.01-1.06-.01-1.31,0-.69-.02-1.45-.06-2.28-.04-.83-.11-1.75-.21-2.74.55.06,1.16.12,1.84.18.68.06,1.31.09,1.9.09s1.2-.03,1.9-.08c.7-.05,1.31-.12,1.84-.2-.06.71-.11,1.45-.15,2.22-.04.77-.08,1.54-.11,2.3-.03.76-.05,1.49-.06,2.19-.01.7-.02,1.34-.02,1.93.47.02.98.04,1.55.05.57.01,1.16.02,1.77.02.53,0,1.09-.01,1.67-.03.59-.02,1.17-.03,1.73-.03,0-.61,0-1.27-.02-1.99-.01-.72-.03-1.46-.06-2.21-.03-.75-.07-1.51-.11-2.27-.04-.76-.09-1.49-.15-2.18.55.06,1.17.12,1.86.18.69.06,1.32.09,1.89.09s1.2-.03,1.9-.08c.7-.05,1.31-.12,1.84-.2-.12,1.28-.21,2.6-.26,3.96-.05,1.36-.08,2.94-.08,4.75,0,1.36,0,2.6.03,3.73s.05,2.2.08,3.23c.03,1.02.06,2.03.09,3.01s.07,2.02.11,3.12c-1.3-.18-2.63-.27-3.99-.27-.59,0-1.17.03-1.75.08-.58.05-1.16.12-1.75.2.08-.67.15-1.48.2-2.42.05-.94.09-1.9.11-2.86.02-.96.03-1.88.05-2.74.01-.86.02-1.56.02-2.09-.55,0-1.11,0-1.67-.03-.57-.02-1.14-.03-1.7-.03-.53,0-1.09,0-1.67.01-.59.01-1.15.03-1.67.05,0,.55,0,1.25.02,2.12,0,.86.03,1.78.05,2.74.02.96.05,1.91.09,2.85.04.93.09,1.73.15,2.4-.63-.1-1.26-.17-1.89-.21-.63-.04-1.27-.06-1.92-.06-.77,0-1.44.03-2.01.08-.57.05-1.12.12-1.64.2l.12-1.52c.04-.45.08-1.01.11-1.69.03-.68.05-1.41.06-2.19.01-.78.02-1.58.03-2.39,0-.81.02-1.56.02-2.25Z"/>
        <path class="cls-10" d="M36.65,9.43c1.75,0,3.38.24,4.9.72,1.52.48,2.85,1.18,3.97,2.12,1.13.93,2.01,2.09,2.65,3.45.64,1.37.96,2.96.96,4.76,0,1.91-.32,3.57-.97,4.98-.65,1.41-1.54,2.58-2.66,3.52s-2.46,1.62-4,2.05c-1.54.44-3.2.65-4.96.65-1.66,0-3.24-.24-4.72-.71-1.48-.48-2.78-1.19-3.9-2.13-1.12-.94-1.99-2.11-2.63-3.5s-.96-2.97-.96-4.73.31-3.43.94-4.82,1.5-2.56,2.6-3.5,2.41-1.65,3.91-2.13c1.5-.48,3.12-.72,4.87-.72ZM33.18,3.34c.34,0,.67.07.99.2.31.13.59.31.84.55.24.23.44.51.58.82.14.31.21.65.21,1.02s-.07.71-.21,1.02c-.14.32-.33.59-.56.82-.23.23-.51.42-.82.56-.31.14-.65.21-1.02.21-.35,0-.67-.07-.99-.21-.31-.14-.59-.33-.82-.58-.23-.24-.42-.52-.56-.84-.14-.31-.21-.64-.21-.99,0-.36.07-.7.21-1.02.14-.31.33-.59.58-.82.24-.23.52-.42.84-.55.31-.13.63-.2.96-.2ZM36.89,29.27c.73,0,1.36-.14,1.89-.43.53-.28.97-.65,1.34-1.11.36-.46.66-.99.88-1.6.22-.61.4-1.23.52-1.87s.2-1.28.24-1.93c.04-.65.06-1.25.06-1.8,0-.87-.06-1.81-.17-2.82-.11-1-.35-1.94-.7-2.8-.36-.86-.87-1.58-1.55-2.15-.68-.57-1.59-.85-2.72-.85-1.08,0-1.94.27-2.6.81-.66.54-1.17,1.21-1.54,2.02-.36.81-.61,1.7-.73,2.66-.12.96-.18,1.86-.18,2.69,0,.63.02,1.29.05,1.99.03.7.11,1.39.23,2.07.12.68.29,1.32.52,1.93.22.61.53,1.15.93,1.63.4.48.88.85,1.46,1.13.58.27,1.27.41,2.09.41ZM40.3,3.34c.69,0,1.29.25,1.81.75s.78,1.11.78,1.84c0,.37-.07.71-.2,1.02-.13.32-.31.59-.55.82s-.51.42-.82.56c-.31.14-.65.21-1.02.21s-.71-.07-1.02-.21c-.32-.14-.59-.33-.82-.58-.23-.24-.42-.52-.56-.84-.14-.31-.21-.64-.21-.99,0-.36.07-.7.21-1.02.14-.31.33-.59.58-.82.24-.23.52-.42.84-.55.31-.13.64-.2.99-.2Z"/>
        <path class="cls-10" d="M66.84,22c.43.71.89,1.48,1.39,2.3s1.01,1.65,1.54,2.48c.53.83,1.06,1.65,1.58,2.47s1.03,1.56,1.52,2.25c-.71-.08-1.42-.15-2.13-.2-.71-.05-1.42-.08-2.13-.08s-1.34.03-1.95.08c-.61.05-1.25.12-1.92.2-.81-1.58-1.63-3.15-2.45-4.7-.82-1.55-1.72-3.12-2.69-4.7h-.09c0,1.34.02,2.85.04,4.52.03,1.67.09,3.3.17,4.89-.59-.08-1.18-.15-1.77-.2-.59-.05-1.2-.08-1.83-.08-.57,0-1.16.03-1.78.08-.62.05-1.27.12-1.96.2.1-1.03.19-2.27.26-3.7.07-1.43.11-2.88.11-4.34,0-.67,0-1.51-.02-2.51-.01-1-.03-2.12-.05-3.33-.02-1.22-.05-2.5-.09-3.85-.04-1.35-.09-2.7-.15-4.06.71.1,1.42.17,2.12.21.7.04,1.37.06,2.02.06.97,0,1.94-.05,2.91-.14.96-.09,1.93-.14,2.91-.14s2.03.07,3.06.21c1.03.14,1.95.42,2.77.84.82.42,1.49,1,2.01,1.77.52.76.78,1.77.78,3.03,0,1.54-.44,2.74-1.32,3.59-.88.85-2.05,1.43-3.52,1.73l.67,1.13ZM59.51,19.68c.1.02.2.04.29.05.09.01.19.02.29.02h.55c1.26,0,2.14-.35,2.63-1.05.5-.7.75-1.64.75-2.82,0-.85-.12-1.52-.35-2.01-.23-.49-.52-.86-.87-1.11-.35-.25-.73-.41-1.14-.47-.42-.06-.81-.09-1.17-.09-.16,0-.32,0-.49.02-.16.01-.32.03-.49.05v7.43Z"/>
        <path class="cls-10" d="M86.54,19.93c.89.08,1.75.23,2.57.44s1.55.53,2.19.96c.64.43,1.15.98,1.54,1.67.38.69.58,1.54.58,2.56,0,1.08-.25,1.99-.75,2.74-.5.75-1.14,1.36-1.93,1.84-.79.48-1.67.82-2.65,1.04-.97.21-1.94.32-2.89.32s-2.07-.05-3.27-.14c-1.21-.09-2.39-.14-3.55-.14-.57,0-1.14.03-1.72.09-.58.06-1.14.12-1.69.18.06-.99.11-1.81.14-2.43.03-.63.06-1.21.09-1.75.03-.54.05-1.09.06-1.64,0-.56.02-1.25.02-2.09v-7.09c0-.51,0-.95-.02-1.32s-.02-.78-.02-1.2l-.18-4.26c1.44.18,2.86.27,4.26.27.97,0,1.92-.05,2.83-.14.91-.09,1.84-.14,2.77-.14.79,0,1.65.06,2.59.18s1.81.37,2.62.75c.81.38,1.49.9,2.02,1.58.54.68.81,1.59.81,2.72,0,.36-.08.81-.23,1.34-.15.53-.46,1.04-.93,1.54-.47.5-1.12.93-1.95,1.31s-1.94.6-3.32.68v.12ZM83.16,18.95c.99,0,1.73-.29,2.21-.88.48-.59.71-1.41.71-2.47,0-.49-.04-.94-.12-1.37-.08-.43-.24-.79-.47-1.1s-.55-.54-.96-.72c-.41-.17-.93-.26-1.58-.26h-.67c-.06,0-.13.01-.21.03,0,.26,0,.54-.02.84-.01.29-.02.68-.02,1.17v4.75h1.13ZM82.03,24.58v2.13c0,.55,0,.99.02,1.32,0,.34.02.65.02.96.61,0,1.17-.02,1.67-.06.51-.04.94-.19,1.31-.44.37-.25.65-.65.85-1.2s.3-1.32.3-2.31c0-1.18-.24-2.09-.72-2.72-.48-.64-1.2-.96-2.18-.96h-1.28v3.29Z"/>
        <path class="cls-10" d="M104.15,26.64c.03,1.78.12,3.39.26,4.86-.57-.1-1.18-.17-1.84-.21-.66-.04-1.31-.06-1.96-.06s-1.29.03-1.92.09c-.63.06-1.2.12-1.7.18.1-1.7.18-3.38.23-5.02.05-1.64.08-3.32.08-5.02,0-.41,0-.91-.02-1.51,0-.6-.02-1.21-.02-1.84s0-1.27-.02-1.87c0-.6-.02-1.1-.02-1.51,0-.71-.02-1.51-.06-2.4-.04-.89-.1-1.77-.18-2.62.53.06,1.14.12,1.83.18.69.06,1.32.09,1.89.09.63,0,1.28-.03,1.95-.08.67-.05,1.27-.12,1.8-.2-.1,1.46-.18,2.9-.24,4.32s-.09,2.86-.09,4.32v3.04c0,1.72.02,3.48.05,5.25Z"/>
      </g>
      <g id="uBvCvs">
        <path class="cls-20" d="M102.5,3.57c.47-.44.91-.92,1.2-1.49,0-.01,0-.02,0-.03s-.02-.01-.03,0c-.28.34-.58.65-.92.93l-.86.7c-.33.27-.65.54-.96.83-.95.89-1.63,1.82-2.19,3,0,.02-.03.03-.04.03-.07.01-.15-.39-.16-.47-.08-.42-.12-.84-.12-1.27s.04-.81.14-1.22c.21-.84.65-1.6,1.28-2.19.67-.63,1.52-1.08,2.38-1.37.44-.14.87-.26,1.32-.38.63-.16,1.26-.34,1.83-.64.02,0,.04,0,.05,0,.01.01.01.03.01.05l-.1,1.33-.05.82c-.06,1.09-.32,2.13-.86,3.08-.36.63-.89,1.18-1.47,1.6-1.16.83-2.3.97-3.69,1.03-.04,0-.26.04-.21-.07.51-1.05,1.18-2,1.98-2.85.28-.3.57-.58.86-.86l.61-.57Z"/>
      </g>
    </g>
  </g>
</svg>